<mxfile host="app.diagrams.net" agent="Mozilla/5.0 (Windows NT 10.0; Win64; x64) AppleWebKit/537.36 (KHTML, like Gecko) Chrome/128.0.0.0 Safari/537.36" version="24.7.14">
  <diagram name="Page-1" id="bPw70brsCyv9wff8xslN">
    <mxGraphModel dx="1499" dy="655" grid="1" gridSize="10" guides="1" tooltips="1" connect="1" arrows="1" fold="1" page="1" pageScale="1" pageWidth="827" pageHeight="1169" math="0" shadow="0">
      <root>
        <mxCell id="0" />
        <mxCell id="1" parent="0" />
        <mxCell id="Cws42EZEmjPFbKZNpQGd-1" value="&lt;font size=&quot;3&quot;&gt;case(state, IP, OP)&lt;/font&gt;&lt;div&gt;&lt;br&gt;&lt;/div&gt;&lt;div&gt;ARMED, 0101, 000 -&amp;gt; ARMED&lt;/div&gt;&lt;div&gt;ARMED, 0111, 000 -&amp;gt; ALARM&lt;/div&gt;&lt;div&gt;ARMED, 1001, 000-&amp;gt; UNLOCKED&lt;/div&gt;&lt;div&gt;&lt;br&gt;&lt;/div&gt;&lt;div&gt;ALARM, 0111, 001-&amp;gt; ALARM&lt;/div&gt;&lt;div&gt;ALARM, 0110, 001 -&amp;gt; ARMED&lt;/div&gt;&lt;div&gt;&lt;br&gt;&lt;/div&gt;&lt;div&gt;UNLOCKED, 1001, 110 -&amp;gt; OCCUPIED&lt;/div&gt;&lt;div&gt;&lt;br&gt;&lt;/div&gt;&lt;div&gt;OCCUPIED, 1011, 100-&amp;gt; OCCUPIED&lt;/div&gt;&lt;div&gt;OCCUPIED, 1001, 100, LOCKED&lt;/div&gt;&lt;div&gt;&lt;br&gt;&lt;/div&gt;&lt;div&gt;LOCKED, 100, 010 -&amp;gt; ARMED&lt;/div&gt;" style="rounded=0;whiteSpace=wrap;html=1;" vertex="1" parent="1">
          <mxGeometry x="100" y="210" width="400" height="460" as="geometry" />
        </mxCell>
      </root>
    </mxGraphModel>
  </diagram>
</mxfile>
